shantell--extrabold.ufo
<glyph name="Eth" format="2">
	<unicode hex="00D0"/>
	<advance width="747"/>
	<outline>
		<contour>
			<point x="151" y="267" type="curve" smooth="yes"/>
			<point x="182" y="267"/>
			<point x="232" y="291"/>
			<point x="369" y="291" type="curve" smooth="yes"/>
			<point x="401" y="291"/>
			<point x="420" y="310"/>
			<point x="420" y="340" type="curve" smooth="yes"/>
			<point x="420" y="374"/>
			<point x="380" y="430"/>
			<point x="270" y="430" type="curve" smooth="yes"/>
			<point x="206" y="430"/>
			<point x="148" y="428"/>
			<point x="77" y="406" type="curve" smooth="yes"/>
			<point x="49" y="398"/>
			<point x="43" y="384"/>
			<point x="43" y="362" type="curve" smooth="yes"/>
			<point x="43" y="316"/>
			<point x="81" y="267"/>
		</contour>
		<component base="D" xOffset="40"/>
	</outline>
</glyph>
<glyph name="eng" format="2">
	<unicode hex="014B"/>
	<advance width="660"/>
	<outline>
		<contour>
			<point x="438" y="107" type="curve" smooth="yes"/>
			<point x="438" y="293"/>
			<point x="426" y="337"/>
			<point x="398" y="373" type="curve"/>
			<point x="449" y="390"/>
			<point x="488.5239264414" y="368.5727614325"/>
			<point x="484" y="317" type="curve"/>
			<point x="457" y="346"/>
			<point x="444" y="357"/>
			<point x="426" y="357" type="curve" smooth="yes"/>
			<point x="375" y="357"/>
			<point x="283" y="227"/>
			<point x="230" y="50" type="curve" smooth="yes"/>
			<point x="217" y="6"/>
			<point x="192" y="-9"/>
			<point x="146" y="-9" type="curve" smooth="yes"/>
			<point x="86" y="-9"/>
			<point x="56" y="58"/>
			<point x="56" y="151" type="curve" smooth="yes"/>
			<point x="56" y="286"/>
			<point x="85" y="338"/>
			<point x="85" y="461" type="curve" smooth="yes"/>
			<point x="85" y="490"/>
			<point x="105" y="511"/>
			<point x="142" y="511" type="curve" smooth="yes"/>
			<point x="183" y="511"/>
			<point x="245" y="477"/>
			<point x="245" y="412" type="curve" smooth="yes"/>
			<point x="245" y="341"/>
			<point x="218" y="325"/>
			<point x="218" y="186" type="curve"/>
			<point x="168" y="252" type="line"/>
			<point x="235" y="441"/>
			<point x="342" y="524"/>
			<point x="440" y="524" type="curve" smooth="yes"/>
			<point x="549" y="524"/>
			<point x="607" y="399"/>
			<point x="607" y="123" type="curve" smooth="yes"/>
			<point x="607" y="-130"/>
			<point x="508.1341619169" y="-260"/>
			<point x="364" y="-260" type="curve" smooth="yes"/>
			<point x="278.7272727273" y="-260"/>
			<point x="230" y="-204.0601503759"/>
			<point x="230" y="-136" type="curve" smooth="yes"/>
			<point x="230" y="-97"/>
			<point x="250" y="-75"/>
			<point x="279" y="-75" type="curve" smooth="yes"/>
			<point x="306.7083333333" y="-75"/>
			<point x="321" y="-88"/>
			<point x="355" y="-88" type="curve" smooth="yes"/>
			<point x="407" y="-88"/>
			<point x="438" y="-20"/>
		</contour>
	</outline>
</glyph>
<glyph name="ohorn" format="2">
	<unicode hex="01A1"/>
	<advance width="674"/>
	<outline>
		<contour>
			<point x="472" y="381" type="curve" smooth="yes"/>
			<point x="610" y="381"/>
			<point x="682" y="432"/>
			<point x="682" y="510" type="curve" smooth="yes"/>
			<point x="682" y="582"/>
			<point x="641" y="617"/>
			<point x="572" y="617" type="curve" smooth="yes"/>
			<point x="530" y="617"/>
			<point x="507" y="597"/>
			<point x="507" y="568" type="curve" smooth="yes"/>
			<point x="507" y="553"/>
			<point x="510" y="545"/>
			<point x="510" y="527" type="curve" smooth="yes"/>
			<point x="510" y="503"/>
			<point x="478" y="490"/>
			<point x="432" y="490" type="curve" smooth="yes"/>
			<point x="408" y="490"/>
			<point x="390" y="475"/>
			<point x="390" y="431" type="curve" smooth="yes"/>
			<point x="390" y="401.5"/>
			<point x="415" y="381"/>
		</contour>
		<component base="o"/>
	</outline>
	<anchor name="top" x="346" y="515"/>
	<anchor name="bottom" x="346" y="0"/>
</glyph>
<glyph name="rinvertedbreve" format="2">
	<unicode hex="0213"/>
	<advance width="558"/>
	<outline>
		<contour>
			<point x="290" y="657" type="curve" smooth="yes"/>
			<point x="244" y="657"/>
			<point x="227" y="641"/>
			<point x="217" y="621" type="curve" smooth="yes"/>
			<point x="206" y="598"/>
			<point x="193" y="582"/>
			<point x="161" y="582" type="curve" smooth="yes"/>
			<point x="110" y="582"/>
			<point x="85" y="612"/>
			<point x="85" y="661" type="curve" smooth="yes"/>
			<point x="85" y="744"/>
			<point x="165" y="811"/>
			<point x="301" y="811" type="curve" smooth="yes"/>
			<point x="413" y="811"/>
			<point x="495" y="740"/>
			<point x="495" y="661" type="curve" smooth="yes"/>
			<point x="495" y="612"/>
			<point x="461" y="587"/>
			<point x="416" y="587" type="curve" smooth="yes"/>
			<point x="386" y="587"/>
			<point x="368" y="599"/>
			<point x="357" y="620" type="curve" smooth="yes"/>
			<point x="346" y="640"/>
			<point x="332" y="657"/>
		</contour>
		<component base="r"/>
	</outline>
</glyph>
<glyph name="ushortcyr" format="2">
	<unicode hex="045E"/>
	<advance width="623"/>
	<outline>
		<contour>
			<point x="307" y="707" type="curve" smooth="yes"/>
			<point x="353" y="707"/>
			<point x="362" y="744"/>
			<point x="372" y="764" type="curve" smooth="yes"/>
			<point x="383" y="787"/>
			<point x="404" y="810"/>
			<point x="436" y="810" type="curve" smooth="yes"/>
			<point x="487" y="810"/>
			<point x="512" y="780"/>
			<point x="512" y="731" type="curve" smooth="yes"/>
			<point x="512" y="648"/>
			<point x="432" y="581"/>
			<point x="296" y="581" type="curve" smooth="yes"/>
			<point x="184" y="581"/>
			<point x="102" y="652"/>
			<point x="102" y="731" type="curve" smooth="yes"/>
			<point x="102" y="780"/>
			<point x="136" y="805"/>
			<point x="181" y="805" type="curve" smooth="yes"/>
			<point x="211" y="805"/>
			<point x="233" y="786"/>
			<point x="244" y="765" type="curve" smooth="yes"/>
			<point x="255" y="745"/>
			<point x="265" y="707"/>
		</contour>
		<component base="y"/>
	</outline>
</glyph>
<glyph name="estailcyr" format="2">
	<unicode hex="04AB"/>
	<advance width="525.9615384615"/>
	<outline>
		<contour>
			<point x="40.8653846154" y="254.3269230769" type="qcurve" smooth="yes"/>
			<point x="40.8653846154" y="269.7115384615" type="line" smooth="yes"/>
			<point x="40.8653846154" y="387.9807692308"/>
			<point x="174.5192307692" y="537.9807692308"/>
			<point x="291.3461538462" y="537.9807692308" type="qcurve" smooth="yes"/>
			<point x="399.5192307692" y="537.9807692308"/>
			<point x="509.1346153846" y="426.9230769231"/>
			<point x="509.1346153846" y="355.7692307692" type="qcurve" smooth="yes"/>
			<point x="509.1346153846" y="353.3653846154" type="line"/>
			<point x="459.6153846154" y="353.3653846154" type="line"/>
			<point x="459.6153846154" y="355.7692307692" type="line" smooth="yes"/>
			<point x="459.6153846154" y="408.6538461538"/>
			<point x="379.3269230769" y="490.3846153846"/>
			<point x="291.3461538462" y="490.3846153846" type="qcurve" smooth="yes"/>
			<point x="190.3846153846" y="490.3846153846"/>
			<point x="92.7884615385" y="362.5"/>
			<point x="92.7884615385" y="269.7115384615" type="qcurve" smooth="yes"/>
			<point x="92.7884615385" y="254.3269230769" type="line" smooth="yes"/>
			<point x="92.7884615385" y="161.0576923077"/>
			<point x="190.3846153846" y="33.1730769231"/>
			<point x="291.3461538462" y="33.1730769231" type="qcurve" smooth="yes"/>
			<point x="379.3269230769" y="33.1730769231"/>
			<point x="459.6153846154" y="114.9038461538"/>
			<point x="459.6153846154" y="168.2692307692" type="qcurve" smooth="yes"/>
			<point x="459.6153846154" y="170.6730769231" type="line"/>
			<point x="509.1346153846" y="170.6730769231" type="line"/>
			<point x="509.1346153846" y="168.2692307692" type="line" smooth="yes"/>
			<point x="509.1346153846" y="96.6346153846"/>
			<point x="399.5192307692" y="-14.4230769231"/>
			<point x="291.3461538462" y="-14.4230769231" type="qcurve" smooth="yes"/>
			<point x="174.5192307692" y="-14.4230769231"/>
			<point x="40.8653846154" y="135.5769230769"/>
		</contour>
		<contour>
			<point x="260.1432880845" y="-15.3846153846" type="line"/>
			<point x="310.8785822021" y="-15.3846153846" type="line"/>
			<point x="293.2692307692" y="-74.7926093514" type="line"/>
			<point x="334.125188537" y="-81.0426093514"/>
			<point x="385.2469834087" y="-117.7036199095"/>
			<point x="385.2469834087" y="-146.1915535445" type="qcurve" smooth="yes"/>
			<point x="385.2469834087" y="-186.8495475113"/>
			<point x="293.9291101056" y="-238.7160633484"/>
			<point x="204.1195324284" y="-238.7160633484" type="qcurve"/>
			<point x="201.8665158371" y="-208.1542232277" type="line"/>
			<point x="267.3359728507" y="-206.7119155354"/>
			<point x="339.8190045249" y="-175.0094268476"/>
			<point x="339.8190045249" y="-147.153092006" type="qcurve" smooth="yes"/>
			<point x="339.8190045249" y="-123.2937405732"/>
			<point x="295.3054298642" y="-105.2036199095"/>
			<point x="238.9894419306" y="-101.8382352941" type="qcurve"/>
		</contour>
	</outline>
</glyph>
<glyph name="Chetailcyr" format="2">
	<unicode hex="04B6"/>
	<advance width="703.3653846154"/>
	<outline>
		<contour>
			<point x="124.5192307692" y="507.2115384615" type="line" smooth="yes"/>
			<point x="124.5192307692" y="394.2307692308"/>
			<point x="234.6153846154" y="318.75"/>
			<point x="336.5384615385" y="318.75" type="qcurve" smooth="yes"/>
			<point x="405.2884615385" y="318.75"/>
			<point x="516.8269230769" y="333.1730769231"/>
			<point x="567.7884615385" y="347.1153846154" type="qcurve"/>
			<point x="567.7884615385" y="299.5192307692" type="line"/>
			<point x="515.8653846154" y="286.0576923077"/>
			<point x="411.0576923077" y="270.6730769231"/>
			<point x="336.5384615385" y="270.6730769231" type="qcurve" smooth="yes"/>
			<point x="204.3269230769" y="270.6730769231"/>
			<point x="72.1153846154" y="370.1923076923"/>
			<point x="72.1153846154" y="507.2115384615" type="qcurve" smooth="yes"/>
			<point x="72.1153846154" y="700" type="line"/>
			<point x="124.5192307692" y="700" type="line"/>
		</contour>
		<contour>
			<point x="646.6346153846" y="-139.4230769231" type="line"/>
			<point x="646.6346153846" y="0" type="line"/>
			<point x="541.8269230769" y="0" type="line"/>
			<point x="541.8269230769" y="700" type="line"/>
			<point x="594.2307692308" y="700" type="line"/>
			<point x="594.2307692308" y="48.0769230769" type="line"/>
			<point x="693.75" y="48.0769230769" type="line"/>
			<point x="693.75" y="-139.4230769231" type="line"/>
		</contour>
	</outline>
</glyph>
<glyph name="Ahoi" format="2">
	<unicode hex="1EA2"/>
	<advance width="780"/>
	<outline>
		<contour>
			<point x="427" y="742" type="curve" smooth="yes"/>
			<point x="528" y="742"/>
			<point x="611" y="821"/>
			<point x="611" y="926" type="curve" smooth="yes"/>
			<point x="611" y="1036"/>
			<point x="546.0000019995" y="1098"/>
			<point x="427" y="1098" type="curve" smooth="yes"/>
			<point x="334" y="1098"/>
			<point x="279" y="1058"/>
			<point x="279" y="1001" type="curve" smooth="yes"/>
			<point x="279" y="958"/>
			<point x="305" y="935"/>
			<point x="348" y="935" type="curve" smooth="yes"/>
			<point x="376" y="935"/>
			<point x="403" y="946"/>
			<point x="417" y="946" type="curve" smooth="yes"/>
			<point x="433" y="946"/>
			<point x="441" y="937"/>
			<point x="441" y="922" type="curve" smooth="yes"/>
			<point x="441" y="906"/>
			<point x="430" y="894"/>
			<point x="409" y="894" type="curve" smooth="yes"/>
			<point x="366" y="894"/>
			<point x="329" y="869"/>
			<point x="329" y="822" type="curve" smooth="yes"/>
			<point x="329" y="768.3529411765"/>
			<point x="368.2" y="742"/>
		</contour>
		<component base="A"/>
	</outline>
</glyph>
<glyph name="ahoi" format="2">
	<unicode hex="1EA3"/>
	<advance width="704"/>
	<outline>
		<contour>
			<point x="341" y="557" type="curve" smooth="yes"/>
			<point x="442" y="557"/>
			<point x="525" y="636"/>
			<point x="525" y="741" type="curve" smooth="yes"/>
			<point x="525" y="851"/>
			<point x="460.0000019995" y="913"/>
			<point x="341" y="913" type="curve" smooth="yes"/>
			<point x="248" y="913"/>
			<point x="193" y="873"/>
			<point x="193" y="816" type="curve" smooth="yes"/>
			<point x="193" y="773"/>
			<point x="219" y="750"/>
			<point x="262" y="750" type="curve" smooth="yes"/>
			<point x="290" y="750"/>
			<point x="317" y="761"/>
			<point x="331" y="761" type="curve" smooth="yes"/>
			<point x="347" y="761"/>
			<point x="355" y="752"/>
			<point x="355" y="737" type="curve" smooth="yes"/>
			<point x="355" y="721"/>
			<point x="344" y="709"/>
			<point x="323" y="709" type="curve" smooth="yes"/>
			<point x="280" y="709"/>
			<point x="243" y="684"/>
			<point x="243" y="637" type="curve" smooth="yes"/>
			<point x="243" y="583.3529411765"/>
			<point x="282.2" y="557"/>
		</contour>
		<component base="a"/>
	</outline>
</glyph>
<glyph name="uhornhoi" format="2">
	<unicode hex="1EED"/>
	<advance width="746"/>
	<outline>
		<contour>
			<point x="345" y="557" type="curve" smooth="yes"/>
			<point x="446" y="557"/>
			<point x="529" y="636"/>
			<point x="529" y="741" type="curve" smooth="yes"/>
			<point x="529" y="851"/>
			<point x="464.0000019995" y="913"/>
			<point x="345" y="913" type="curve" smooth="yes"/>
			<point x="252" y="913"/>
			<point x="197" y="873"/>
			<point x="197" y="816" type="curve" smooth="yes"/>
			<point x="197" y="773"/>
			<point x="223" y="750"/>
			<point x="266" y="750" type="curve" smooth="yes"/>
			<point x="294" y="750"/>
			<point x="321" y="761"/>
			<point x="335" y="761" type="curve" smooth="yes"/>
			<point x="351" y="761"/>
			<point x="359" y="752"/>
			<point x="359" y="737" type="curve" smooth="yes"/>
			<point x="359" y="721"/>
			<point x="348" y="709"/>
			<point x="327" y="709" type="curve" smooth="yes"/>
			<point x="284" y="709"/>
			<point x="247" y="684"/>
			<point x="247" y="637" type="curve" smooth="yes"/>
			<point x="247" y="583.3529411765"/>
			<point x="286.2" y="557"/>
		</contour>
		<component base="uhorn"/>
	</outline>
</glyph>
<glyph name="heartwhite" format="2">
	<unicode hex="2661"/>
	<advance width="899"/>
	<image fileName="heartwhite.png" xScale="2.3975871566" yScale="2.3975871566" xOffset="-28.1964063412" yOffset="-113.4402793074" color="0,0,0,0.20363"/>
	<outline>
		<contour>
			<point x="401" y="470" type="curve" smooth="yes"/>
			<point x="378" y="509"/>
			<point x="349" y="536"/>
			<point x="311" y="536" type="curve" smooth="yes"/>
			<point x="266" y="536"/>
			<point x="226" y="508"/>
			<point x="226" y="458" type="curve" smooth="yes"/>
			<point x="226" y="326"/>
			<point x="425" y="164"/>
			<point x="499" y="164" type="curve" smooth="yes"/>
			<point x="594" y="164"/>
			<point x="673" y="386"/>
			<point x="673" y="484" type="curve" smooth="yes"/>
			<point x="673" y="485"/>
			<point x="673" y="486"/>
			<point x="671" y="486" type="curve" smooth="yes"/>
			<point x="614" y="486"/>
			<point x="562" y="437"/>
			<point x="523" y="361" type="curve" smooth="yes"/>
			<point x="505" y="326"/>
			<point x="483" y="302"/>
			<point x="456" y="302" type="curve" smooth="yes"/>
			<point x="389" y="302"/>
			<point x="345" y="397"/>
			<point x="373" y="453" type="curve" smooth="yes"/>
			<point x="444" y="593"/>
			<point x="556" y="662"/>
			<point x="680" y="662" type="curve" smooth="yes"/>
			<point x="787" y="662"/>
			<point x="849" y="607"/>
			<point x="849" y="484" type="curve" smooth="yes"/>
			<point x="849" y="306"/>
			<point x="701" y="-12"/>
			<point x="499" y="-12" type="curve" smooth="yes"/>
			<point x="373" y="-12"/>
			<point x="50" y="235"/>
			<point x="50" y="458" type="curve" smooth="yes"/>
			<point x="50" y="612"/>
			<point x="164" y="712"/>
			<point x="311" y="712" type="curve" smooth="yes"/>
			<point x="406" y="712"/>
			<point x="492" y="663"/>
			<point x="553" y="560" type="curve" smooth="yes"/>
			<point x="577" y="519"/>
			<point x="563" y="463"/>
			<point x="522" y="439" type="curve" smooth="yes"/>
			<point x="481" y="415"/>
			<point x="425" y="429"/>
		</contour>
	</outline>
</glyph>
<glyph name="Decyr.ss01" format="2">
	<advance width="836"/>
	<outline>
		<contour>
			<point x="131" y="166"/>
			<point x="163" y="282"/>
			<point x="190" y="369" type="curve" smooth="yes"/>
			<point x="225" y="484"/>
			<point x="276" y="596"/>
			<point x="320" y="645" type="curve" smooth="yes"/>
			<point x="354" y="682"/>
			<point x="398" y="706"/>
			<point x="443" y="706" type="curve" smooth="yes"/>
			<point x="490" y="706"/>
			<point x="538" y="682"/>
			<point x="576" y="617" type="curve" smooth="yes"/>
			<point x="648" y="496"/>
			<point x="706" y="277"/>
			<point x="710" y="86" type="curve"/>
			<point x="537" y="87" type="line"/>
			<point x="532" y="265"/>
			<point x="485" y="427"/>
			<point x="430" y="527" type="curve"/>
			<point x="448" y="529" type="line"/>
			<point x="414" y="492"/>
			<point x="381" y="406"/>
			<point x="354" y="319" type="curve" smooth="yes"/>
			<point x="329" y="238"/>
			<point x="293" y="93"/>
			<point x="293" y="93" type="curve"/>
			<point x="122" y="89" type="line"/>
		</contour>
		<contour>
			<point x="654" y="-82"/>
			<point x="657" y="-25"/>
			<point x="657" y="5" type="curve"/>
			<point x="685" y="-6" type="line"/>
			<point x="641" y="-4"/>
			<point x="590" y="0"/>
			<point x="501" y="0" type="curve" smooth="yes"/>
			<point x="332" y="0"/>
			<point x="199" y="1"/>
			<point x="120" y="-19" type="curve"/>
			<point x="161" y="45" type="line"/>
			<point x="170" y="-7"/>
			<point x="172" y="-84"/>
			<point x="172" y="-123" type="curve" smooth="yes"/>
			<point x="172" y="-178"/>
			<point x="125" y="-197"/>
			<point x="85" y="-197" type="curve" smooth="yes"/>
			<point x="41" y="-197"/>
			<point x="26" y="-173"/>
			<point x="16" y="-140" type="curve" smooth="yes"/>
			<point x="11" y="-123"/>
			<point x="4" y="-42"/>
			<point x="4" y="5" type="curve" smooth="yes"/>
			<point x="4" y="76"/>
			<point x="17" y="140"/>
			<point x="123" y="147" type="curve" smooth="yes"/>
			<point x="178" y="150"/>
			<point x="314" y="157"/>
			<point x="496" y="157" type="curve" smooth="yes"/>
			<point x="591" y="157"/>
			<point x="681" y="154"/>
			<point x="725" y="150" type="curve" smooth="yes"/>
			<point x="801" y="143"/>
			<point x="826" y="104"/>
			<point x="830" y="35" type="curve" smooth="yes"/>
			<point x="833" y="-9"/>
			<point x="827" y="-108"/>
			<point x="824" y="-133" type="curve" smooth="yes"/>
			<point x="818" y="-176"/>
			<point x="782" y="-197"/>
			<point x="740" y="-197" type="curve" smooth="yes"/>
			<point x="686" y="-197"/>
			<point x="654" y="-160"/>
			<point x="654" y="-111" type="curve" smooth="yes"/>
		</contour>
	</outline>
</glyph>
<glyph name="emcyr.ss01" format="2">
	<advance width="836"/>
	<outline>
		<contour>
			<point x="29.7580246552" y="108" type="curve" smooth="yes"/>
			<point x="113.7580246552" y="248"/>
			<point x="125.7580246552" y="431"/>
			<point x="166.7580246552" y="487" type="curve" smooth="yes"/>
			<point x="200.7580246552" y="533"/>
			<point x="245.7580246552" y="531"/>
			<point x="276.7580246552" y="523" type="curve" smooth="yes"/>
			<point x="305.7580246552" y="516"/>
			<point x="332.7580246552" y="493"/>
			<point x="356.7580246552" y="447" type="curve" smooth="yes"/>
			<point x="380.7580246552" y="401"/>
			<point x="407.7580246552" y="328"/>
			<point x="429.7580246552" y="262" type="curve" smooth="yes"/>
			<point x="449.7580246552" y="201"/>
			<point x="465.7580246552" y="145"/>
			<point x="471.7580246552" y="121" type="curve"/>
			<point x="372.7580246552" y="148" type="line"/>
			<point x="383.7580246552" y="161"/>
			<point x="418.7580246552" y="212"/>
			<point x="450.7580246552" y="278" type="curve" smooth="yes"/>
			<point x="481.7580246552" y="342"/>
			<point x="511.7580246552" y="410"/>
			<point x="527.7580246552" y="446" type="curve" smooth="yes"/>
			<point x="553.7580246552" y="501"/>
			<point x="599.7580246552" y="528"/>
			<point x="635.7580246552" y="524" type="curve" smooth="yes"/>
			<point x="684.7580246552" y="520"/>
			<point x="736.7580246552" y="487"/>
			<point x="744.7580246552" y="414" type="curve" smooth="yes"/>
			<point x="749.7580246552" y="384"/>
			<point x="758.7580246552" y="326"/>
			<point x="769.7580246552" y="264" type="curve" smooth="yes"/>
			<point x="780.7580246552" y="205"/>
			<point x="793.7580246552" y="141"/>
			<point x="807.7580246552" y="94" type="curve" smooth="yes"/>
			<point x="821.7580246552" y="49"/>
			<point x="794.7580246552" y="0"/>
			<point x="750.7580246552" y="-13" type="curve" smooth="yes"/>
			<point x="705.7580246552" y="-27"/>
			<point x="656.7580246552" y="0"/>
			<point x="643.7580246552" y="44" type="curve" smooth="yes"/>
			<point x="627.7580246552" y="96"/>
			<point x="612.7580246552" y="167"/>
			<point x="600.7580246552" y="233" type="curve" smooth="yes"/>
			<point x="588.7580246552" y="298"/>
			<point x="579.7580246552" y="358"/>
			<point x="574.7580246552" y="394" type="curve"/>
			<point x="651.7580246552" y="376" type="line"/>
			<point x="627.7580246552" y="317"/>
			<point x="557.7580246552" y="177"/>
			<point x="519.7580246552" y="112" type="curve" smooth="yes"/>
			<point x="474.7580246552" y="33"/>
			<point x="447.7580246552" y="-4"/>
			<point x="390.7580246552" y="-2" type="curve" smooth="yes"/>
			<point x="347.7580246552" y="-1"/>
			<point x="318.7580246552" y="29"/>
			<point x="302.7580246552" y="92" type="curve" smooth="yes"/>
			<point x="277.7580246552" y="176"/>
			<point x="236.7580246552" y="297"/>
			<point x="194.7580246552" y="388" type="curve"/>
			<point x="281.7580246552" y="378" type="line"/>
			<point x="268.7580246552" y="294"/>
			<point x="223.7580246552" y="103"/>
			<point x="167.7580246552" y="18" type="curve" smooth="yes"/>
			<point x="141.7580246552" y="-22"/>
			<point x="93.7580246552" y="-33"/>
			<point x="57.7580246552" y="-10" type="curve" smooth="yes"/>
			<point x="17.7580246552" y="14"/>
			<point x="4.7580246552" y="69"/>
		</contour>
	</outline>
	<guideline x="694" y="542" angle="90" identifier="gUAQefNe1j"/>
</glyph>
<glyph name="gecyr.BUL" format="2">
	<advance width="536"/>
	<outline>
		<contour>
			<point x="284" y="534" type="curve" smooth="yes"/>
			<point x="446" y="534"/>
			<point x="511" y="471"/>
			<point x="511" y="399" type="curve" smooth="yes"/>
			<point x="511" y="319"/>
			<point x="473" y="270"/>
			<point x="355" y="226" type="curve" smooth="yes"/>
			<point x="267" y="193"/>
			<point x="220" y="186"/>
			<point x="185" y="157" type="curve"/>
			<point x="186" y="195" type="line"/>
			<point x="204" y="171"/>
			<point x="242" y="156"/>
			<point x="286" y="156" type="curve" smooth="yes"/>
			<point x="369" y="156"/>
			<point x="463" y="193"/>
			<point x="483" y="193" type="curve" smooth="yes"/>
			<point x="505" y="193"/>
			<point x="517" y="177"/>
			<point x="517" y="137" type="curve" smooth="yes"/>
			<point x="517" y="50"/>
			<point x="442" y="-15"/>
			<point x="264" y="-15" type="curve" smooth="yes"/>
			<point x="102" y="-15"/>
			<point x="34" y="61"/>
			<point x="34" y="132" type="curve" smooth="yes"/>
			<point x="34" y="229"/>
			<point x="99" y="275"/>
			<point x="232" y="319" type="curve" smooth="yes"/>
			<point x="310" y="345"/>
			<point x="345" y="356"/>
			<point x="379" y="387" type="curve"/>
			<point x="383" y="349" type="line"/>
			<point x="356" y="373"/>
			<point x="321" y="381"/>
			<point x="273" y="381" type="curve" smooth="yes"/>
			<point x="203" y="381"/>
			<point x="127" y="339"/>
			<point x="92" y="333" type="curve" smooth="yes"/>
			<point x="59" y="327"/>
			<point x="41" y="353"/>
			<point x="37" y="387" type="curve" smooth="yes"/>
			<point x="27" y="472"/>
			<point x="128" y="534"/>
		</contour>
	</outline>
</glyph>
<glyph name="icyr.ss02" format="2">
	<advance width="658"/>
	<outline>
		<contour>
			<point x="221.3115767867" y="454" type="curve" smooth="yes"/>
			<point x="236.3115767867" y="306"/>
			<point x="225.3115767867" y="170"/>
			<point x="225.3115767867" y="114" type="curve"/>
			<point x="225.3115767867" y="204"/>
			<point x="147.3115767867" y="178"/>
			<point x="122.3115767867" y="153" type="curve"/>
			<point x="143.3115767867" y="174"/>
			<point x="190.3115767867" y="233"/>
			<point x="236.3115767867" y="287" type="curve" smooth="yes"/>
			<point x="305.3115767867" y="366"/>
			<point x="408.3115767867" y="487"/>
			<point x="422.3115767867" y="497" type="curve" smooth="yes"/>
			<point x="498.3115767867" y="556"/>
			<point x="599.3115767867" y="528"/>
			<point x="599.3115767867" y="415" type="curve" smooth="yes"/>
			<point x="598.3115767867" y="256"/>
			<point x="610.3115767867" y="78"/>
			<point x="610.3115767867" y="78" type="curve" smooth="yes"/>
			<point x="613.3115767867" y="31"/>
			<point x="576.3115767867" y="-11"/>
			<point x="530.3115767867" y="-14" type="curve" smooth="yes"/>
			<point x="483.3115767867" y="-17"/>
			<point x="441.3115767867" y="20"/>
			<point x="438.3115767867" y="66" type="curve" smooth="yes"/>
			<point x="438.3115767867" y="66"/>
			<point x="426.3115767867" y="252"/>
			<point x="427.3115767867" y="415" type="curve"/>
			<point x="427.3115767867" y="358"/>
			<point x="476.3115767867" y="322"/>
			<point x="526.3115767867" y="361" type="curve"/>
			<point x="514.3115767867" y="351"/>
			<point x="427.3115767867" y="244"/>
			<point x="366.3115767867" y="173" type="curve" smooth="yes"/>
			<point x="316.3115767867" y="117"/>
			<point x="267.3115767867" y="54"/>
			<point x="244.3115767867" y="31" type="curve" smooth="yes"/>
			<point x="191.3115767867" y="-22"/>
			<point x="53.3115767867" y="-38"/>
			<point x="53.3115767867" y="114" type="curve" smooth="yes"/>
			<point x="53.3115767867" y="168"/>
			<point x="64.3115767867" y="296"/>
			<point x="49.3115767867" y="436" type="curve" smooth="yes"/>
			<point x="45.3115767867" y="482"/>
			<point x="80.3115767867" y="526"/>
			<point x="126.3115767867" y="531" type="curve" smooth="yes"/>
			<point x="172.3115767867" y="535"/>
			<point x="216.3115767867" y="500"/>
		</contour>
	</outline>
</glyph>
<glyph name="seven.dnom" format="2">
	<advance width="540"/>
	<outline>
		<contour>
			<point x="145" y="243" type="curve" smooth="yes"/>
			<point x="222" y="243"/>
			<point x="289" y="261"/>
			<point x="404" y="261" type="curve" smooth="yes"/>
			<point x="465" y="261"/>
			<point x="502" y="228"/>
			<point x="503" y="182" type="curve" smooth="yes"/>
			<point x="504" y="153"/>
			<point x="484" y="133"/>
			<point x="448" y="133" type="curve" smooth="yes"/>
			<point x="294" y="133"/>
			<point x="239" y="115"/>
			<point x="172" y="115" type="curve" smooth="yes"/>
			<point x="129" y="115"/>
			<point x="97" y="147"/>
			<point x="96" y="187" type="curve" smooth="yes"/>
			<point x="95" y="224"/>
			<point x="109" y="243"/>
		</contour>
		<contour>
			<point x="56" y="419" type="curve" smooth="yes"/>
			<point x="127" y="443"/>
			<point x="236" y="462"/>
			<point x="283" y="462" type="curve" smooth="yes"/>
			<point x="406" y="462"/>
			<point x="454" y="409"/>
			<point x="456" y="331" type="curve" smooth="yes"/>
			<point x="459" y="222"/>
			<point x="350" y="153"/>
			<point x="353" y="51" type="curve" smooth="yes"/>
			<point x="354" y="7"/>
			<point x="339" y="-6"/>
			<point x="301" y="-6" type="curve" smooth="yes"/>
			<point x="254" y="-6"/>
			<point x="214" y="16"/>
			<point x="213" y="63" type="curve" smooth="yes"/>
			<point x="210" y="154"/>
			<point x="314" y="280"/>
			<point x="312" y="314" type="curve" smooth="yes"/>
			<point x="312" y="326"/>
			<point x="304" y="330"/>
			<point x="291" y="330" type="curve" smooth="yes"/>
			<point x="184" y="330"/>
			<point x="140" y="299"/>
			<point x="108" y="299" type="curve" smooth="yes"/>
			<point x="76" y="299"/>
			<point x="38" y="344"/>
			<point x="37" y="381" type="curve" smooth="yes"/>
			<point x="36" y="397"/>
			<point x="43" y="415"/>
		</contour>
	</outline>
</glyph>
<glyph name="vecyr.ss01" format="2">
	<advance width="588"/>
	<outline>
		<contour>
			<point x="268" y="377" type="curve"/>
			<point x="251" y="484" type="line"/>
			<point x="326" y="472"/>
			<point x="411" y="441"/>
			<point x="470" y="406" type="curve" smooth="yes"/>
			<point x="528" y="370"/>
			<point x="559" y="330"/>
			<point x="559" y="268" type="curve" smooth="yes"/>
			<point x="559" y="105"/>
			<point x="351" y="-20"/>
			<point x="258" y="-20" type="curve" smooth="yes"/>
			<point x="179" y="-20"/>
			<point x="38" y="68"/>
			<point x="38" y="361" type="curve" smooth="yes"/>
			<point x="38" y="624"/>
			<point x="190" y="808"/>
			<point x="365" y="814" type="curve" smooth="yes"/>
			<point x="503" y="818"/>
			<point x="594" y="730"/>
			<point x="594" y="647" type="curve" smooth="yes"/>
			<point x="594" y="527"/>
			<point x="434" y="408"/>
		</contour>
		<contour>
			<point x="212" y="477" type="line"/>
			<point x="270" y="498"/>
			<point x="404" y="547"/>
			<point x="404" y="619" type="curve" smooth="yes"/>
			<point x="404" y="637"/>
			<point x="387" y="642"/>
			<point x="371" y="642" type="curve" smooth="yes"/>
			<point x="258" y="642"/>
			<point x="211" y="458"/>
			<point x="211" y="360" type="curve" smooth="yes"/>
			<point x="211" y="309"/>
			<point x="204" y="152"/>
			<point x="258" y="152" type="curve" smooth="yes"/>
			<point x="303" y="152"/>
			<point x="390" y="234"/>
			<point x="390" y="267" type="curve" smooth="yes"/>
			<point x="390" y="302"/>
			<point x="264" y="317"/>
			<point x="203" y="335" type="curve"/>
		</contour>
	</outline>
	<guideline x="177" y="150" angle="90" identifier="NQt60oWmSh"/>
</glyph>
<glyph name="ylongcyr.ss01" format="2">
	<advance width="821"/>
	<outline>
		<contour>
			<point x="228" y="454" type="curve" smooth="yes"/>
			<point x="230" y="413"/>
			<point x="230" y="338"/>
			<point x="230" y="257" type="curve" smooth="yes"/>
			<point x="230" y="251"/>
			<point x="222" y="220"/>
			<point x="222" y="193" type="curve" smooth="yes"/>
			<point x="222" y="163"/>
			<point x="236" y="155"/>
			<point x="255" y="155" type="curve" smooth="yes"/>
			<point x="278" y="155"/>
			<point x="313" y="169"/>
			<point x="313" y="197" type="curve" smooth="yes"/>
			<point x="313" y="220"/>
			<point x="302" y="227"/>
			<point x="278" y="238" type="curve" smooth="yes"/>
			<point x="257" y="248"/>
			<point x="174" y="273"/>
			<point x="174" y="273" type="curve"/>
			<point x="177" y="399" type="line"/>
			<point x="325" y="440"/>
			<point x="563" y="527"/>
			<point x="635" y="527" type="curve" smooth="yes"/>
			<point x="719" y="527"/>
			<point x="765" y="482"/>
			<point x="765" y="404" type="curve" smooth="yes"/>
			<point x="765" y="345"/>
			<point x="754" y="247"/>
			<point x="781" y="108" type="curve" smooth="yes"/>
			<point x="796" y="53"/>
			<point x="752" y="-13"/>
			<point x="685" y="-13" type="curve" smooth="yes"/>
			<point x="640" y="-13"/>
			<point x="616" y="15"/>
			<point x="610" y="46" type="curve" smooth="yes"/>
			<point x="578" y="199"/>
			<point x="593" y="332"/>
			<point x="593" y="404" type="curve"/>
			<point x="593" y="392"/>
			<point x="612" y="396"/>
			<point x="631" y="380" type="curve"/>
			<point x="589" y="359"/>
			<point x="333" y="292"/>
			<point x="211" y="272" type="curve"/>
			<point x="213" y="381" type="line"/>
			<point x="213" y="381"/>
			<point x="293" y="391"/>
			<point x="313" y="380" type="curve" smooth="yes"/>
			<point x="365" y="365"/>
			<point x="485" y="314"/>
			<point x="485" y="197" type="curve" smooth="yes"/>
			<point x="485" y="64"/>
			<point x="351" y="-18"/>
			<point x="238" y="-18" type="curve" smooth="yes"/>
			<point x="156" y="-18"/>
			<point x="64" y="64"/>
			<point x="62" y="183" type="curve" smooth="yes"/>
			<point x="60" y="290"/>
			<point x="59" y="387"/>
			<point x="51" y="440" type="curve" smooth="yes"/>
			<point x="46" y="482"/>
			<point x="100" y="532"/>
			<point x="159" y="532" type="curve" smooth="yes"/>
			<point x="193" y="532"/>
			<point x="225" y="509"/>
		</contour>
	</outline>
</glyph>
<glyph name="zhecyr.ss01" format="2">
	<advance width="924"/>
	<outline>
		<contour>
			<point x="297" y="462" type="curve" smooth="yes"/>
			<point x="308" y="422"/>
			<point x="315" y="341"/>
			<point x="315" y="260" type="curve" smooth="yes"/>
			<point x="315" y="185"/>
			<point x="306" y="127"/>
			<point x="297" y="63" type="curve" smooth="yes"/>
			<point x="291" y="17"/>
			<point x="247" y="-17"/>
			<point x="201" y="-11" type="curve" smooth="yes"/>
			<point x="155" y="-5"/>
			<point x="121" y="39"/>
			<point x="127" y="85" type="curve" smooth="yes"/>
			<point x="134" y="143"/>
			<point x="143" y="193"/>
			<point x="143" y="260" type="curve" smooth="yes"/>
			<point x="143" y="321"/>
			<point x="140" y="384"/>
			<point x="131" y="414" type="curve" smooth="yes"/>
			<point x="119" y="459"/>
			<point x="146" y="508"/>
			<point x="190" y="521" type="curve" smooth="yes"/>
			<point x="235" y="533"/>
			<point x="284" y="506"/>
		</contour>
		<contour>
			<point x="559" y="441" type="curve" smooth="yes"/>
			<point x="560" y="415"/>
			<point x="561" y="332"/>
			<point x="561" y="260" type="curve" smooth="yes"/>
			<point x="561" y="190"/>
			<point x="561" y="122"/>
			<point x="562" y="71" type="curve" smooth="yes"/>
			<point x="563" y="24"/>
			<point x="524" y="-16"/>
			<point x="478" y="-17" type="curve" smooth="yes"/>
			<point x="431" y="-18"/>
			<point x="391" y="21"/>
			<point x="390" y="67" type="curve" smooth="yes"/>
			<point x="389" y="120"/>
			<point x="389" y="188"/>
			<point x="389" y="260" type="curve" smooth="yes"/>
			<point x="389" y="330"/>
			<point x="388" y="409"/>
			<point x="387" y="435" type="curve" smooth="yes"/>
			<point x="385" y="481"/>
			<point x="423" y="522"/>
			<point x="470" y="524" type="curve" smooth="yes"/>
			<point x="516" y="526"/>
			<point x="557" y="488"/>
		</contour>
		<contour>
			<point x="820" y="441" type="curve" smooth="yes"/>
			<point x="821" y="415"/>
			<point x="814" y="332"/>
			<point x="814" y="260" type="curve" smooth="yes"/>
			<point x="814" y="190"/>
			<point x="822" y="122"/>
			<point x="823" y="71" type="curve" smooth="yes"/>
			<point x="824" y="24"/>
			<point x="785" y="-16"/>
			<point x="739" y="-17" type="curve" smooth="yes"/>
			<point x="692" y="-18"/>
			<point x="652" y="21"/>
			<point x="651" y="67" type="curve" smooth="yes"/>
			<point x="650" y="120"/>
			<point x="642" y="188"/>
			<point x="642" y="260" type="curve" smooth="yes"/>
			<point x="642" y="330"/>
			<point x="649" y="409"/>
			<point x="648" y="435" type="curve" smooth="yes"/>
			<point x="646" y="481"/>
			<point x="684" y="522"/>
			<point x="731" y="524" type="curve" smooth="yes"/>
			<point x="777" y="526"/>
			<point x="818" y="488"/>
		</contour>
		<contour>
			<point x="143" y="340" type="curve" smooth="yes"/>
			<point x="180" y="345"/>
			<point x="310" y="358"/>
			<point x="412" y="356" type="curve" smooth="yes"/>
			<point x="508" y="354"/>
			<point x="660" y="346"/>
			<point x="791" y="333" type="curve" smooth="yes"/>
			<point x="841" y="328"/>
			<point x="869" y="316"/>
			<point x="869" y="273" type="curve" smooth="yes"/>
			<point x="869" y="227"/>
			<point x="823" y="177"/>
			<point x="776" y="178" type="curve" smooth="yes"/>
			<point x="643" y="181"/>
			<point x="521" y="200"/>
			<point x="423" y="202" type="curve" smooth="yes"/>
			<point x="331" y="204"/>
			<point x="155" y="194"/>
			<point x="122" y="194" type="curve" smooth="yes"/>
			<point x="70" y="194"/>
			<point x="48" y="214"/>
			<point x="48" y="250" type="curve" smooth="yes"/>
			<point x="48" y="296"/>
			<point x="97" y="335"/>
		</contour>
	</outline>
</glyph>
<glyph name="zhecyr.ss02" format="2">
	<advance width="883"/>
	<outline>
		<contour>
			<point x="252" y="462" type="curve" smooth="yes"/>
			<point x="263" y="422"/>
			<point x="270" y="341"/>
			<point x="270" y="260" type="curve" smooth="yes"/>
			<point x="270" y="185"/>
			<point x="261" y="127"/>
			<point x="252" y="63" type="curve" smooth="yes"/>
			<point x="246" y="17"/>
			<point x="202" y="-17"/>
			<point x="156" y="-11" type="curve" smooth="yes"/>
			<point x="110" y="-5"/>
			<point x="76" y="39"/>
			<point x="82" y="85" type="curve" smooth="yes"/>
			<point x="89" y="143"/>
			<point x="98" y="193"/>
			<point x="98" y="260" type="curve" smooth="yes"/>
			<point x="98" y="321"/>
			<point x="95" y="384"/>
			<point x="86" y="414" type="curve" smooth="yes"/>
			<point x="74" y="459"/>
			<point x="101" y="508"/>
			<point x="145" y="521" type="curve" smooth="yes"/>
			<point x="190" y="533"/>
			<point x="239" y="506"/>
		</contour>
		<contour>
			<point x="542" y="441" type="curve" smooth="yes"/>
			<point x="543" y="415"/>
			<point x="544" y="332"/>
			<point x="544" y="260" type="curve" smooth="yes"/>
			<point x="544" y="190"/>
			<point x="544" y="122"/>
			<point x="545" y="71" type="curve" smooth="yes"/>
			<point x="546" y="24"/>
			<point x="507" y="-16"/>
			<point x="461" y="-17" type="curve" smooth="yes"/>
			<point x="414" y="-18"/>
			<point x="374" y="21"/>
			<point x="373" y="67" type="curve" smooth="yes"/>
			<point x="372" y="120"/>
			<point x="372" y="188"/>
			<point x="372" y="260" type="curve" smooth="yes"/>
			<point x="372" y="330"/>
			<point x="371" y="409"/>
			<point x="370" y="435" type="curve" smooth="yes"/>
			<point x="368" y="481"/>
			<point x="406" y="522"/>
			<point x="453" y="524" type="curve" smooth="yes"/>
			<point x="499" y="526"/>
			<point x="540" y="488"/>
		</contour>
		<contour>
			<point x="811" y="441" type="curve" smooth="yes"/>
			<point x="812" y="415"/>
			<point x="805" y="332"/>
			<point x="805" y="260" type="curve" smooth="yes"/>
			<point x="805" y="190"/>
			<point x="813" y="122"/>
			<point x="814" y="71" type="curve" smooth="yes"/>
			<point x="815" y="24"/>
			<point x="776" y="-16"/>
			<point x="730" y="-17" type="curve" smooth="yes"/>
			<point x="683" y="-18"/>
			<point x="643" y="21"/>
			<point x="642" y="67" type="curve" smooth="yes"/>
			<point x="641" y="120"/>
			<point x="633" y="188"/>
			<point x="633" y="260" type="curve" smooth="yes"/>
			<point x="633" y="330"/>
			<point x="640" y="409"/>
			<point x="639" y="435" type="curve" smooth="yes"/>
			<point x="637" y="481"/>
			<point x="675" y="522"/>
			<point x="722" y="524" type="curve" smooth="yes"/>
			<point x="768" y="526"/>
			<point x="809" y="488"/>
		</contour>
		<contour>
			<point x="147" y="340" type="curve" smooth="yes"/>
			<point x="184" y="345"/>
			<point x="284" y="353"/>
			<point x="386" y="351" type="curve" smooth="yes"/>
			<point x="482" y="349"/>
			<point x="675" y="337"/>
			<point x="806" y="324" type="curve" smooth="yes"/>
			<point x="856" y="319"/>
			<point x="881" y="316"/>
			<point x="881" y="273" type="curve" smooth="yes"/>
			<point x="881" y="227"/>
			<point x="845" y="200"/>
			<point x="774" y="200" type="curve" smooth="yes"/>
			<point x="641" y="200"/>
			<point x="484" y="207"/>
			<point x="383" y="202" type="curve" smooth="yes"/>
			<point x="291" y="197"/>
			<point x="176" y="184"/>
			<point x="143" y="184" type="curve" smooth="yes"/>
			<point x="91" y="184"/>
			<point x="58" y="209"/>
			<point x="58" y="245" type="curve" smooth="yes"/>
			<point x="58" y="291"/>
			<point x="101" y="335"/>
		</contour>
	</outline>
</glyph>
